<svg xmlns="http://www.w3.org/2000/svg" xmlns:xlink="http://www.w3.org/1999/xlink" width="40" zoomAndPan="magnify" viewBox="0 0 30 30.000001" height="40" preserveAspectRatio="xMidYMid meet" version="1.0"><defs><g/></defs><g fill="#ff4c24" fill-opacity="1"><g transform="translate(0.531234, 17.987633)"><g><path d="M 8.09375 0 L 1.453125 0 L 1.453125 -11.53125 L 8.09375 -11.53125 L 8.09375 -9.53125 L 3.890625 -9.53125 L 3.890625 -7 L 7.796875 -7 L 7.796875 -5 L 3.890625 -5 L 3.890625 -2.015625 L 8.09375 -2.015625 Z M 8.09375 0 "/></g></g></g><g fill="#ff4c24" fill-opacity="1"><g transform="translate(9.576679, 17.987633)"><g><path d="M 6.328125 0 L 3.5625 -9.046875 L 3.484375 -9.046875 C 3.585938 -7.203125 3.640625 -5.972656 3.640625 -5.359375 L 3.640625 0 L 1.453125 0 L 1.453125 -11.53125 L 4.78125 -11.53125 L 7.515625 -2.71875 L 7.5625 -2.71875 L 10.453125 -11.53125 L 13.78125 -11.53125 L 13.78125 0 L 11.5 0 L 11.5 -5.453125 C 11.5 -5.710938 11.503906 -6.007812 11.515625 -6.34375 C 11.523438 -6.6875 11.5625 -7.582031 11.625 -9.03125 L 11.546875 -9.03125 L 8.578125 0 Z M 6.328125 0 "/></g></g></g><g fill="#ff4c24" fill-opacity="1"><g transform="translate(24.804871, 17.987633)"><g><path d="M 0.921875 -1.125 C 0.921875 -1.570312 1.039062 -1.90625 1.28125 -2.125 C 1.519531 -2.351562 1.863281 -2.46875 2.3125 -2.46875 C 2.75 -2.46875 3.085938 -2.351562 3.328125 -2.125 C 3.566406 -1.894531 3.6875 -1.5625 3.6875 -1.125 C 3.6875 -0.707031 3.5625 -0.378906 3.3125 -0.140625 C 3.070312 0.0976562 2.738281 0.21875 2.3125 0.21875 C 1.875 0.21875 1.53125 0.101562 1.28125 -0.125 C 1.039062 -0.363281 0.921875 -0.695312 0.921875 -1.125 Z M 0.921875 -1.125 "/></g></g></g><g fill="#ffffff" fill-opacity="1"><g transform="translate(1.743576, 24.302008)"><g><path d="M 4.453125 -4.734375 L 4.453125 -1.671875 C 4.453125 -1.316406 4.375 -1.007812 4.21875 -0.75 C 4.0625 -0.488281 3.832031 -0.285156 3.53125 -0.140625 C 3.238281 -0.00390625 2.890625 0.0625 2.484375 0.0625 C 1.878906 0.0625 1.40625 -0.09375 1.0625 -0.40625 C 0.726562 -0.71875 0.5625 -1.144531 0.5625 -1.6875 L 0.5625 -4.734375 L 1.5625 -4.734375 L 1.5625 -1.84375 C 1.5625 -1.476562 1.632812 -1.207031 1.78125 -1.03125 C 1.925781 -0.863281 2.171875 -0.78125 2.515625 -0.78125 C 2.847656 -0.78125 3.085938 -0.863281 3.234375 -1.03125 C 3.378906 -1.207031 3.453125 -1.476562 3.453125 -1.84375 L 3.453125 -4.734375 Z M 4.453125 -4.734375 "/></g></g></g><g fill="#ffffff" fill-opacity="1"><g transform="translate(6.760398, 24.302008)"><g><path d="M 4.796875 0 L 3.53125 0 L 1.46875 -3.59375 L 1.4375 -3.59375 C 1.476562 -2.957031 1.5 -2.503906 1.5 -2.234375 L 1.5 0 L 0.59375 0 L 0.59375 -4.734375 L 1.859375 -4.734375 L 3.921875 -1.1875 L 3.953125 -1.1875 C 3.910156 -1.800781 3.890625 -2.238281 3.890625 -2.5 L 3.890625 -4.734375 L 4.796875 -4.734375 Z M 4.796875 0 "/></g></g></g><g fill="#ffffff" fill-opacity="1"><g transform="translate(12.156407, 24.302008)"><g><path d="M 1.578125 0 L 0.59375 0 L 0.59375 -4.734375 L 3.3125 -4.734375 L 3.3125 -3.921875 L 1.578125 -3.921875 L 1.578125 -2.6875 L 3.1875 -2.6875 L 3.1875 -1.875 L 1.578125 -1.875 Z M 1.578125 0 "/></g></g></g><g fill="#ffffff" fill-opacity="1"><g transform="translate(15.799112, 24.302008)"><g><path d="M 3.296875 -4.734375 L 4.3125 -4.734375 L 2.703125 0 L 1.609375 0 L 0 -4.734375 L 1.015625 -4.734375 L 1.90625 -1.921875 C 1.957031 -1.753906 2.007812 -1.554688 2.0625 -1.328125 C 2.113281 -1.109375 2.144531 -0.957031 2.15625 -0.875 C 2.175781 -1.070312 2.257812 -1.421875 2.40625 -1.921875 Z M 3.296875 -4.734375 "/></g></g></g></svg>